<?xml version="1.0" encoding="UTF-8" standalone="no"?>
<!DOCTYPE svg PUBLIC "-//W3C//DTD SVG 1.1//EN" "http://www.w3.org/Graphics/SVG/1.1/DTD/svg11.dtd">
<svg width="100%" height="100%" viewBox="0 0 400 128" version="1.1"
    xmlns="http://www.w3.org/2000/svg" xmlns:xlink="http://www.w3.org/1999/xlink"
    xml:space="preserve" xmlns:serif="http://www.serif.com/"
    style="fill-rule:evenodd;clip-rule:evenodd;stroke-linejoin:round;stroke-miterlimit:2;">
    <g id="logo_vector.svg" transform="matrix(0.0999511,0,0,0.0999511,63.9993,63.4675)">
        <g transform="matrix(1,0,0,1,-640,-640)">
            <g>
                <path d="M550.59,822.09C550.59,822.09 556.87,813.02 564.82,802.22C574.25,789.42 590.48,776.34 602.77,772.15C631.68,762.3 632.85,744.93 623.48,735.64C617.76,729.98 601.52,728.2 567.73,734.65C609.4,706.37 664.35,717.76 695.53,728.41C747.18,746.05 757.54,680.54 701.96,673.1C669.38,668.74 638.6,669.54 585.45,698.79C634.56,648.48 669.69,653.65 713.38,595.32C733,566.46 912.78,302.02 912.78,302.02L691.92,147.22L221.13,821.42L550.59,822.09Z" style="fill-rule:nonzero;"/>
                <path d="M808.85,526.73C808.85,526.73 792.5,550.08 776.05,573.68C755.09,603.73 739.13,611.38 721.11,629C708.26,641.56 706.28,656.8 725.41,662.57C813.93,689.27 832.53,763.52 755.45,756.48C706.69,752.03 634.97,768.56 589.99,836.01L395.94,1111.69L739.05,1111.69L1033.54,685.8L808.85,526.73Z" style="fill-rule:nonzero;"/>
            </g>
        </g>
    </g>
    <g transform="matrix(1,0,0,1,-6.79117,-1.69779)">
        <text x="136.714px" y="90.308px" style="font-family:'FranklinGothic-Book', 'Franklin Gothic Book', 'Helvetica', sans-serif;font-size:72px;">sp4ghet</text>
    </g>
</svg>